Coordinates
version=1
nRows=12
nColumns=33
inDegrees=yes

Units are S.I. units (second, meters, Newtons, ...)
Angles are in degrees.

endheader
time	ground_thorax_rot_x	ground_thorax_rot_y	ground_thorax_rot_z	ground_thorax_tx	ground_thorax_ty	ground_thorax_tz	clav_prot_r	clav_elev_r	scapula_abduction_r	scapula_elevation_r	scapula_upward_rot_r	scapula_winging_r	shoulder_elv_r	plane_of_elev_r	axial_rot_r	elbow_flexion_r	pro_sup_r	wrist_flex_r	wrist_dev_r	clav_prot_l	clav_elev_l	scapula_abduction_l	scapula_elevation_l	scapula_upward_rot_l	scapula_winging_l	shoulder_elv_l	plane_of_elev_l	axial_rot_l	elbow_flexion_l	pro_sup_l	wrist_flex_l	wrist_dev_l
      7.71000000	     37.51045503	     -1.93434749	      4.71841601	    -43.99309472	    795.10853159	     11.46446173	     18.30441862	     38.52601242	     45.00000000	     44.17152780	    -40.70228181	  -3311.62395655	  -2626.20902611	    143.86714336	    179.99999979	   1449.66160625	     36.88077854	     20.70594867	     16.40093338	      5.93514653	    -45.00000000	    -45.00000000	     45.00000000	    -17.92201629	   2967.51334925	   -102.10417372	    140.26490770	    162.05927362	   1084.75088269	     13.31373774	     14.73932710	    -18.07554779
      7.72000000	     37.60465812	     -2.71889057	      4.01922894	    -43.16673070	    793.30711150	     11.52321913	     18.04428794	     38.78575528	     45.00000000	     43.78836442	    -39.38204766	  -3311.59744553	  -2626.49086539	    144.06039976	    179.99999979	   1449.41272314	     37.54149983	     20.77055663	     16.44235005	      5.43020588	    -45.00000000	    -45.00000000	     45.00000000	    -17.21946735	   2967.07753399	   -102.18609954	    140.19785247	    163.48653970	   1084.45604784	     13.27464996	     14.79973570	    -18.00562731
      7.73000000	     37.68737909	     -2.97606441	      3.89241509	    -42.62657675	    791.77175617	     11.53729530	     18.00651568	     38.62780893	     45.00000000	     43.53855935	    -39.13163724	  -3311.52695999	  -2626.61560488	    144.13165309	    179.99999979	   1449.15545943	     37.79959477	     20.72615228	     16.48466737	      5.41731421	    -45.00000000	    -45.00000000	     45.00000000	    -17.25305170	   2966.84050586	   -102.22606369	    140.17647764	    163.68257227	   1084.34478682	     13.44923067	     14.70974995	    -17.98387250
      7.74000000	     37.82198784	     -3.25605355	      3.78928172	    -42.38684691	    790.49666676	     11.50746997	     17.99037565	     38.51363242	     45.00000000	     43.39230667	    -38.96721873	  -3311.47336528	  -2626.70327899	    144.17261910	    179.99999979	   1448.88955209	     37.82361976	     20.66173488	     16.57835667	      5.38259083	    -45.00000000	    -45.00000000	     45.00000000	    -17.26151926	   2966.63436708	   -102.22973964	    140.10076012	    163.77483762	   1084.23866844	     13.56580893	     14.62552499	    -17.96060883
      7.75000000	     37.84487630	     -2.98188165	      4.41511877	    -42.46589037	    789.45789663	     11.42599357	     18.12459365	     38.46704925	     45.00000000	     43.28543331	    -39.84002584	  -3311.31447971	  -2626.75785012	    144.29268949	    179.99999979	   1448.79267879	     37.57971047	     20.46841319	     16.25320463	      5.36342656	    -45.00000000	    -45.00000000	     45.00000000	    -17.50738300	   2966.75492648	   -102.40272552	    140.30704037	    163.84350165	   1084.14267577	     13.64508280	     14.53893709	    -17.95488970
      7.76000000	     37.94918239	     -3.07767041	      4.57686719	    -42.88054945	    788.63350032	     11.28616012	     18.12389072	     38.34664371	     45.00000000	     43.21264748	    -40.00626713	  -3311.25913569	  -2626.87034412	    144.35565036	    179.99999979	   1448.47254090	     37.30959843	     20.31148807	     16.23151548	      5.37497910	    -45.00000000	    -45.00000000	     45.00000000	    -17.57599697	   2966.76269480	   -102.43881015	    140.32459586	    163.88308970	   1084.06552475	     13.65066557	     14.44939409	    -17.95988690
      7.77000000	     38.00675019	     -2.95835060	      5.07906789	    -43.63584822	    787.99271701	     11.08059070	     18.28361670	     38.13088599	     45.00000000	     43.16612771	    -40.60887190	  -3311.21896901	  -2626.95735707	    144.45089710	    179.99999979	   1448.36091570	     36.93891387	     20.16584498	     16.02667453	      5.40447181	    -45.00000000	    -45.00000000	     45.00000000	    -17.94254819	   2967.00592306	   -102.51353899	    140.30080880	    163.88020930	   1083.92319012	     13.64376296	     14.37611802	    -17.96477299
      7.78000000	     38.30569970	     -3.83019867	      4.23067418	    -44.73115213	    787.50648638	     10.80289136	     17.94543435	     38.49376086	     45.00000000	     43.12607497	    -39.66913453	  -3311.47940248	  -2626.97265645	    144.39730210	    179.99999979	   1448.21824591	     36.82933500	     20.20884071	     16.41087323	      5.21701459	    -45.00000000	    -45.00000000	     45.00000000	    -16.97487796	   2966.61320742	   -102.51835701	    140.47602124	    164.30710972	   1083.95559195	     13.52939104	     14.27258903	    -18.03466427
      7.79000000	     38.28444030	     -3.18801648	      5.39607738	    -46.16859966	    787.14704225	     10.44754206	     18.24767077	     38.09649336	     45.00000000	     43.25964046	    -41.27778091	  -3311.28835264	  -2627.03972727	    144.52120614	    179.99999979	   1448.06071650	     36.62820246	     20.03807450	     15.94760995	      5.32264322	    -45.00000000	    -45.00000000	     45.00000000	    -17.77878074	   2967.26900990	   -102.62665601	    140.38932271	    164.17523812	   1083.66595494	     13.58206758	     14.20993077	    -18.04390788
      7.80000000	     38.36460272	     -2.75862567	      6.19652580	    -47.93302040	    786.89815112	     10.01493220	     18.65481442	     37.56707433	     45.00000000	     43.22570785	    -42.60524600	  -3311.40959308	  -2626.82236132	    144.52581641	    179.99999979	   1448.02940393	     36.48207458	     20.09790196	     15.98088979	      5.70506412	    -45.00000000	    -45.00000000	     45.00000000	    -19.32535282	   2967.64208452	   -102.41308337	    140.09228176	    163.80677176	   1083.81314154	     13.65425107	     14.11813060	    -18.21765017
      7.81000000	     38.45697947	     -2.53342437	      6.81772790	    -50.00436661	    786.74465342	      9.50920026	     18.86055940	     37.40169459	     45.00000000	     43.34323571	    -43.49552261	  -3311.53436290	  -2626.84952216	    144.53037910	    179.99999979	   1447.84257573	     36.56555920	     20.04831313	     15.83318415	      5.85246477	    -45.00000000	    -45.00000000	     45.00000000	    -19.83530595	   2968.04838365	   -102.34389306	    140.01054646	    163.77025798	   1083.79535627	     13.68041633	     13.96834375	    -18.30694763
      7.82000000	     38.53675386	     -2.68859914	      6.86991005	    -52.40813099	    786.67472951	      8.92629342	     18.89147587	     37.38472614	     45.00000000	     43.44350945	    -44.00412623	  -3311.60137136	  -2626.87941381	    144.51028248	    179.99999979	   1447.87754495	     36.88305337	     20.11689954	     15.71509168	      5.87618394	    -45.00000000	    -45.00000000	     45.00000000	    -19.88118891	   2968.29698451	   -102.35368639	    140.06588938	    163.94550851	   1083.73600042	     13.70454815	     13.94522266	    -18.37080298
